<svg width="3443" height="700" viewBox="0 0 3443 700" fill="none" xmlns="http://www.w3.org/2000/svg">
<path d="M2074.5 587V603H2038.5V431H1871V548.5H1844V54.9996H1814.5V75.4996L1771.5 122.5V97L1740 85.7496V107L1712.5 97V73.9996L1684 60.5V85.7496L1654 69.5V48.5L1631 27.5V58.2498L1597 42.2495V1H1572V593H1545V383.5H1443V537.5H1330V399.5H1314V361H1330V349.5H1241.5V361H1262V399.5H1194V490H1122L1081 591H999.5V289L916 177.5H845L850 524H800.5V431H771V399.5H700.5L689.5 338H676V315.5H628.5V338H590V580.5H438V404L385 323L361.389 360.5M2074.5 587H2061M2074.5 587V537.5M2074.5 537.5H2061M2074.5 537.5V442.5M2074.5 442.5H2061M2074.5 442.5V361M2074.5 361H2061M2074.5 361V281.5M2074.5 281.5H2061M2074.5 281.5V207M2074.5 207H2061M2074.5 207V134.5H2061V95.9996H2174.5V75.4996H2262.5V95.9996H2294.5V116.5H2271.5V580.5L2305.5 576C2309.17 500.5 2314.3 349.5 2305.5 349.5C2296.7 349.5 2294.5 334.5 2294.5 327H2312L2323.5 295H2374.5L2381.5 327H2412V311L2439 295H2450.5V327H2477.5V311V295H2520.88V327H2537V297.5L2554.5 295V327H2582V349.5H2554.5V512.5L2661 557.5V383.5H2742.5V193.5H2724.5V170.5H2742.5V150.5H2855.5V134.5H2887.5V116.5H2930.5V150.5L2953 170.5V193.5H2930.5V458H2962.5M348.481 381L334 404V537.5H239V625.5H171V487.5H75V693L58 694.5L38 696.5L1 699H3442L3334 692.5L3308.5 469.5H3252V327H3270V308.5H3111.5V327H3127.5V605.5H3018.5V458H2993.5M348.481 381H334V294H348.481V360.5H361.389M348.481 381L361.389 360.5M2962.5 458V293.5H2993.5V458M2962.5 458H2993.5M634 348.5H646.5V360.5H634V348.5Z" stroke="#F58634"/>
<path d="M628.5 350.5H617H612.5V361H628.5V350.5Z" stroke="#F58634"/>
<path d="M595.5 362V351.5H608V362H595.5Z" stroke="#F58634"/>
<path d="M613.5 370.5H628.5V384H613.5V370.5Z" stroke="#F58634"/>
<path d="M595 370.5H610V384H595V370.5Z" stroke="#F58634"/>
<path d="M595 389.5H610V403H595V389.5Z" stroke="#F58634"/>
<path d="M1269 269.5V344V349H1294.5V344V333.5H1284.5V344H1275.5V269.5H1269Z" stroke="#F58634"/>
<rect x="1607.5" y="167" width="27" height="47" stroke="#F58634"/>
<rect x="1607.5" y="95.5" width="27" height="47" stroke="#F58634"/>
<rect x="1664.5" y="95.5" width="27" height="47" stroke="#F58634"/>
<rect x="1664.5" y="167" width="27" height="47" stroke="#F58634"/>
<rect x="1721.5" y="167" width="27" height="47" stroke="#F58634"/>
<rect x="1721.5" y="238" width="27" height="47" stroke="#F58634"/>
<rect x="1721.5" y="309" width="27" height="47" stroke="#F58634"/>
<rect x="1721.5" y="380" width="27" height="47" stroke="#F58634"/>
<rect x="1721.5" y="451" width="27" height="47" stroke="#F58634"/>
<rect x="1778.5" y="167" width="27" height="47" stroke="#F58634"/>
<rect x="1778.5" y="238" width="27" height="47" stroke="#F58634"/>
<rect x="1778.5" y="309" width="27" height="47" stroke="#F58634"/>
<rect x="1778.5" y="380" width="27" height="47" stroke="#F58634"/>
<rect x="1778.5" y="451" width="27" height="47" stroke="#F58634"/>
<rect x="2095.5" y="143" width="13" height="47" stroke="#F58634"/>
<rect x="2095.5" y="222" width="13" height="47" stroke="#F58634"/>
<rect x="2095.5" y="301" width="13" height="47" stroke="#F58634"/>
<rect x="2095.5" y="380" width="13" height="47" stroke="#F58634"/>
<rect x="2095.5" y="459" width="13" height="47" stroke="#F58634"/>
<rect x="2095.5" y="538" width="13" height="47" stroke="#F58634"/>
<rect x="2139.5" y="538" width="13" height="47" stroke="#F58634"/>
<rect x="2183.5" y="538" width="13" height="47" stroke="#F58634"/>
<rect x="2139.5" y="459" width="13" height="47" stroke="#F58634"/>
<rect x="2139.5" y="380" width="13" height="47" stroke="#F58634"/>
<rect x="2139.5" y="301" width="13" height="47" stroke="#F58634"/>
<rect x="2139.5" y="222" width="13" height="47" stroke="#F58634"/>
<rect x="2139.5" y="143" width="13" height="47" stroke="#F58634"/>
<rect x="2186.5" y="143" width="13" height="47" stroke="#F58634"/>
<rect x="2186.5" y="222" width="13" height="47" stroke="#F58634"/>
<rect x="2186.5" y="301" width="13" height="47" stroke="#F58634"/>
<rect x="2186.5" y="380" width="13" height="47" stroke="#F58634"/>
<rect x="2186.5" y="459" width="13" height="47" stroke="#F58634"/>
<rect x="2233.5" y="143" width="13" height="47" stroke="#F58634"/>
<rect x="2233.5" y="222" width="13" height="47" stroke="#F58634"/>
<rect x="2233.5" y="301" width="13" height="47" stroke="#F58634"/>
<rect x="2233.5" y="380" width="13" height="47" stroke="#F58634"/>
<rect x="2233.5" y="459" width="13" height="47" stroke="#F58634"/>
<rect x="1664.5" y="238" width="27" height="47" stroke="#F58634"/>
<rect x="1664.5" y="309" width="27" height="47" stroke="#F58634"/>
<rect x="1664.5" y="380" width="27" height="47" stroke="#F58634"/>
<rect x="1664.5" y="451" width="27" height="47" stroke="#F58634"/>
<rect x="1607.5" y="238" width="27" height="47" stroke="#F58634"/>
<rect x="1607.5" y="309" width="27" height="47" stroke="#F58634"/>
<rect x="1607.5" y="380" width="27" height="47" stroke="#F58634"/>
<rect x="1607.5" y="451" width="27" height="47" stroke="#F58634"/>
<rect x="2764.5" y="219" width="13" height="27" stroke="#F58634"/>
<rect x="2764.5" y="262" width="13" height="27" stroke="#F58634"/>
<rect x="2764.5" y="305" width="13" height="27" stroke="#F58634"/>
<rect x="2790.5" y="219" width="13" height="27" stroke="#F58634"/>
<rect x="2816.5" y="219" width="13" height="27" stroke="#F58634"/>
<rect x="2842.5" y="219" width="13" height="27" stroke="#F58634"/>
<rect x="2790.5" y="262" width="13" height="27" stroke="#F58634"/>
<rect x="2816.5" y="262" width="13" height="27" stroke="#F58634"/>
<rect x="2842.5" y="262" width="13" height="27" stroke="#F58634"/>
<rect x="2868.5" y="262" width="13" height="27" stroke="#F58634"/>
<rect x="2790.5" y="305" width="13" height="27" stroke="#F58634"/>
<rect x="2816.5" y="305" width="13" height="27" stroke="#F58634"/>
<rect x="2842.5" y="305" width="13" height="27" stroke="#F58634"/>
<rect x="2868.5" y="305" width="13" height="27" stroke="#F58634"/>
<rect x="2894.5" y="305" width="13" height="27" stroke="#F58634"/>
<rect x="3138.5" y="346" width="12" height="24" stroke="#F58634"/>
<rect x="3161.5" y="346" width="12" height="24" stroke="#F58634"/>
<rect x="3138.5" y="382" width="12" height="24" stroke="#F58634"/>
<rect x="3161.5" y="382" width="12" height="24" stroke="#F58634"/>
<rect x="3184.5" y="346" width="12" height="24" stroke="#F58634"/>
<path d="M3224 308.499H3136C3138.67 297.499 3142.5 264 3179.5 264C3216.5 264 3221.5 294.5 3224 308.499Z" stroke="#F58634"/>
<rect x="351.5" y="422.5" width="66" height="28" stroke="#F58634"/>
</svg>
