<svg width="699" height="709" viewBox="0 0 699 709" fill="none" xmlns="http://www.w3.org/2000/svg">
<path fillRule="evenodd" clipRule="evenodd" d="M120.573 149.092L0 206.852L0.721996 707.917L320.205 708.278L385.185 605.033L119.851 604.672L120.573 149.092Z" fill="black"/>
<path fillRule="evenodd" clipRule="evenodd" d="M1.08268 162.449L0.72168 0.360998L524.891 0C803.581 223.097 717.303 581.929 468.575 709H366.413L442.944 587.344C576.874 489.874 625.248 296.379 497.455 139.345L275.08 30.6848L1.08268 162.449Z" fill="#F58634"/>
<path d="M303.96 246.923H211.545V338.977H303.96V246.923Z" fill="black"/>
<path d="M421.286 246.923H328.87V338.977H421.286V246.923Z" fill="black"/>
<path d="M303.96 365.691H211.545V457.746H303.96V365.691Z" fill="black"/>
<path d="M421.286 365.691H328.87V457.745H421.286V365.691Z" fill="black"/>
</svg>
