<svg width="933" height="198" viewBox="0 0 933 198" fill="none" xmlns="http://www.w3.org/2000/svg">
<path fillRule="evenodd" clipRule="evenodd" d="M32.0629 48.2145L0 63.574L0.191994 196.817L85.1491 196.913L102.429 169.458L31.8709 169.362L32.0629 48.2145Z" fill="black"/>
<path fillRule="evenodd" clipRule="evenodd" d="M0.287891 51.7664L0.191895 8.66384L139.579 8.56784C213.689 67.8938 190.745 163.315 124.604 197.105H97.4366L117.788 164.755C153.403 138.835 166.266 87.3812 132.283 45.6226L73.1494 16.7276L0.287891 51.7664Z" fill="#F58634"/>
<path d="M80.8293 74.2296H56.2542V98.7088H80.8293V74.2296Z" fill="black"/>
<path d="M112.028 74.2296H87.4531V98.7088H112.028V74.2296Z" fill="black"/>
<path d="M80.8293 105.812H56.2542V130.292H80.8293V105.812Z" fill="black"/>
<path d="M112.028 105.812H87.4531V130.292H112.028V105.812Z" fill="black"/>
<path d="M213.81 66V16.8645H219.76V60.7218H242.6V66H213.81ZM291.358 41.4323C291.358 46.6145 290.422 51.093 288.551 54.8677C286.679 58.6425 284.112 61.5535 280.849 63.6008C277.586 65.6481 273.86 66.6718 269.669 66.6718C265.478 66.6718 261.752 65.6481 258.489 63.6008C255.226 61.5535 252.659 58.6425 250.787 54.8677C248.916 51.093 247.98 46.6145 247.98 41.4323C247.98 36.25 248.916 31.7715 250.787 27.9968C252.659 24.2221 255.226 21.311 258.489 19.2637C261.752 17.2164 265.478 16.1928 269.669 16.1928C273.86 16.1928 277.586 17.2164 280.849 19.2637C284.112 21.311 286.679 24.2221 288.551 27.9968C290.422 31.7715 291.358 36.25 291.358 41.4323ZM285.6 41.4323C285.6 37.1777 284.888 33.5869 283.464 30.6599C282.057 27.7329 280.146 25.5176 277.73 24.0141C275.331 22.5106 272.644 21.7589 269.669 21.7589C266.694 21.7589 263.999 22.5106 261.584 24.0141C259.185 25.5176 257.273 27.7329 255.85 30.6599C254.442 33.5869 253.738 37.1777 253.738 41.4323C253.738 45.6868 254.442 49.2776 255.85 52.2046C257.273 55.1317 259.185 57.3469 261.584 58.8504C263.999 60.3539 266.694 61.1056 269.669 61.1056C272.644 61.1056 275.331 60.3539 277.73 58.8504C280.146 57.3469 282.057 55.1317 283.464 52.2046C284.888 49.2776 285.6 45.6868 285.6 41.4323ZM301.362 66V16.8645H318.541C321.963 16.8645 324.787 17.4563 327.01 18.6399C329.233 19.8075 330.888 21.383 331.976 23.3663C333.064 25.3337 333.608 27.5169 333.608 29.9161C333.608 32.0274 333.232 33.7708 332.48 35.1464C331.744 36.5219 330.769 37.6096 329.553 38.4093C328.353 39.209 327.05 39.8008 325.642 40.1847V40.6645C327.146 40.7605 328.657 41.2883 330.177 42.248C331.696 43.2077 332.968 44.5832 333.991 46.3746C335.015 48.166 335.527 50.3573 335.527 52.9484C335.527 55.4116 334.967 57.6268 333.847 59.5942C332.728 61.5615 330.96 63.121 328.545 64.2726C326.13 65.4242 322.987 66 319.116 66H301.362ZM307.312 60.7218H319.116C323.003 60.7218 325.762 59.97 327.394 58.4665C329.041 56.947 329.865 55.1077 329.865 52.9484C329.865 51.285 329.441 49.7495 328.593 48.3419C327.746 46.9184 326.538 45.7828 324.97 44.9351C323.403 44.0714 321.548 43.6395 319.404 43.6395H307.312V60.7218ZM307.312 38.4573H318.349C320.14 38.4573 321.756 38.1054 323.195 37.4016C324.651 36.6979 325.802 35.7062 326.65 34.4266C327.514 33.1471 327.945 31.6436 327.945 29.9161C327.945 27.7569 327.194 25.9255 325.69 24.422C324.187 22.9025 321.804 22.1428 318.541 22.1428H307.312V38.4573ZM351.254 16.8645V66H345.304V16.8645H351.254Z" fill="#373435"/>
<path d="M228.973 139.341H213.81V90.206H229.645C234.411 90.206 238.49 91.1897 241.88 93.157C245.271 95.1084 247.87 97.9154 249.678 101.578C251.485 105.225 252.389 109.592 252.389 114.678C252.389 119.796 251.477 124.203 249.654 127.897C247.83 131.576 245.175 134.407 241.688 136.39C238.202 138.358 233.963 139.341 228.973 139.341ZM219.76 134.063H228.589C232.652 134.063 236.018 133.28 238.689 131.712C241.361 130.145 243.352 127.913 244.663 125.018C245.975 122.123 246.631 118.676 246.631 114.678C246.631 110.711 245.983 107.296 244.687 104.433C243.392 101.554 241.457 99.3469 238.881 97.8115C236.306 96.26 233.099 95.4842 229.261 95.4842H219.76V134.063ZM262.37 139.341V90.206H292.024V95.4842H268.32V112.087H290.488V117.365H268.32V134.063H292.407V139.341H262.37ZM302.748 139.341V90.206H308.698V114.582H309.274L331.346 90.206H339.12L318.487 112.375L339.12 139.341H331.922L314.84 116.501L308.698 123.411V139.341H302.748ZM385.97 114.774C385.97 119.956 385.034 124.435 383.163 128.209C381.291 131.984 378.724 134.895 375.461 136.942C372.199 138.99 368.472 140.013 364.281 140.013C360.091 140.013 356.364 138.99 353.101 136.942C349.838 134.895 347.271 131.984 345.4 128.209C343.528 124.435 342.593 119.956 342.593 114.774C342.593 109.592 343.528 105.113 345.4 101.338C347.271 97.5636 349.838 94.6525 353.101 92.6052C356.364 90.5579 360.091 89.5343 364.281 89.5343C368.472 89.5343 372.199 90.5579 375.461 92.6052C378.724 94.6525 381.291 97.5636 383.163 101.338C385.034 105.113 385.97 109.592 385.97 114.774ZM380.212 114.774C380.212 110.519 379.5 106.928 378.077 104.001C376.669 101.074 374.758 98.8591 372.343 97.3556C369.943 95.8521 367.256 95.1004 364.281 95.1004C361.306 95.1004 358.611 95.8521 356.196 97.3556C353.797 98.8591 351.885 101.074 350.462 104.001C349.054 106.928 348.351 110.519 348.351 114.774C348.351 119.028 349.054 122.619 350.462 125.546C351.885 128.473 353.797 130.688 356.196 132.192C358.611 133.695 361.306 134.447 364.281 134.447C367.256 134.447 369.943 133.695 372.343 132.192C374.758 130.688 376.669 128.473 378.077 125.546C379.5 122.619 380.212 119.028 380.212 114.774ZM395.975 139.341V90.206H412.577C416.416 90.206 419.567 90.8618 422.03 92.1734C424.493 93.4689 426.316 95.2523 427.5 97.5236C428.684 99.7948 429.275 102.378 429.275 105.273C429.275 108.168 428.684 110.735 427.5 112.974C426.316 115.214 424.501 116.973 422.054 118.253C419.607 119.516 416.48 120.148 412.673 120.148H399.237V114.774H412.481C415.104 114.774 417.215 114.39 418.815 113.622C420.43 112.854 421.598 111.767 422.318 110.359C423.053 108.936 423.421 107.24 423.421 105.273C423.421 103.306 423.053 101.586 422.318 100.115C421.582 98.6432 420.406 97.5076 418.791 96.7078C417.175 95.8921 415.04 95.4842 412.385 95.4842H401.925V139.341H395.975ZM419.103 117.269L431.195 139.341H424.285L412.385 117.269H419.103ZM471.435 90.206H477.385V122.739C477.385 126.098 476.593 129.097 475.01 131.736C473.442 134.359 471.227 136.43 468.364 137.95C465.501 139.453 462.142 140.205 458.288 140.205C454.433 140.205 451.074 139.453 448.211 137.95C445.348 136.43 443.125 134.359 441.541 131.736C439.974 129.097 439.19 126.098 439.19 122.739V90.206H445.14V122.259C445.14 124.658 445.668 126.794 446.723 128.665C447.779 130.52 449.283 131.984 451.234 133.056C453.201 134.111 455.553 134.639 458.288 134.639C461.023 134.639 463.374 134.111 465.341 133.056C467.309 131.984 468.812 130.52 469.852 128.665C470.907 126.794 471.435 124.658 471.435 122.259V90.206ZM489.267 90.206H496.369L513.067 130.992H513.643L530.341 90.206H537.443V139.341H531.877V102.01H531.397L516.042 139.341H510.668L495.313 102.01H494.833V139.341H489.267V90.206ZM551.388 139.341H545.15L563.192 90.206H569.334L587.376 139.341H581.138L566.455 97.9794H566.071L551.388 139.341ZM553.691 120.148H578.835V125.426H553.691V120.148Z" fill="#F58634"/>
<path d="M931.86 138H581.86V139H931.86V138Z" fill="#F58634" stroke="#F58634" strokeWidth="1.00003"/>
<path d="M228.834 179.265H226.689C226.563 178.649 226.341 178.107 226.024 177.64C225.712 177.173 225.332 176.781 224.882 176.464C224.439 176.141 223.946 175.899 223.404 175.738C222.862 175.576 222.297 175.496 221.709 175.496C220.637 175.496 219.666 175.767 218.796 176.308C217.931 176.85 217.242 177.648 216.729 178.703C216.222 179.758 215.968 181.052 215.968 182.585C215.968 184.119 216.222 185.413 216.729 186.467C217.242 187.522 217.931 188.32 218.796 188.862C219.666 189.404 220.637 189.675 221.709 189.675C222.297 189.675 222.862 189.594 223.404 189.433C223.946 189.271 224.439 189.032 224.882 188.715C225.332 188.392 225.712 187.998 226.024 187.531C226.341 187.058 226.563 186.516 226.689 185.905H228.834C228.672 186.81 228.378 187.62 227.952 188.335C227.525 189.05 226.995 189.658 226.361 190.159C225.727 190.655 225.015 191.032 224.225 191.292C223.441 191.551 222.603 191.681 221.709 191.681C220.199 191.681 218.856 191.312 217.68 190.574C216.504 189.836 215.579 188.787 214.905 187.427C214.231 186.067 213.893 184.453 213.893 182.585C213.893 180.718 214.231 179.104 214.905 177.744C215.579 176.383 216.504 175.334 217.68 174.596C218.856 173.859 220.199 173.49 221.709 173.49C222.603 173.49 223.441 173.619 224.225 173.879C225.015 174.138 225.727 174.519 226.361 175.02C226.995 175.516 227.525 176.121 227.952 176.836C228.378 177.545 228.672 178.355 228.834 179.265ZM237.417 191.715C236.218 191.715 235.166 191.43 234.261 190.859C233.362 190.289 232.659 189.491 232.151 188.465C231.65 187.439 231.399 186.24 231.399 184.868C231.399 183.484 231.65 182.277 232.151 181.245C232.659 180.213 233.362 179.412 234.261 178.842C235.166 178.271 236.218 177.986 237.417 177.986C238.616 177.986 239.665 178.271 240.564 178.842C241.469 179.412 242.172 180.213 242.674 181.245C243.181 182.277 243.434 183.484 243.434 184.868C243.434 186.24 243.181 187.439 242.674 188.465C242.172 189.491 241.469 190.289 240.564 190.859C239.665 191.43 238.616 191.715 237.417 191.715ZM237.417 189.882C238.327 189.882 239.077 189.649 239.665 189.182C240.253 188.715 240.688 188.101 240.97 187.341C241.253 186.58 241.394 185.755 241.394 184.868C241.394 183.98 241.253 183.153 240.97 182.386C240.688 181.62 240.253 181 239.665 180.528C239.077 180.055 238.327 179.819 237.417 179.819C236.506 179.819 235.757 180.055 235.169 180.528C234.581 181 234.146 181.62 233.863 182.386C233.581 183.153 233.44 183.98 233.44 184.868C233.44 185.755 233.581 186.58 233.863 187.341C234.146 188.101 234.581 188.715 235.169 189.182C235.757 189.649 236.506 189.882 237.417 189.882ZM248.589 183.45V191.439H246.549V178.159H248.52V180.234H248.693C249.004 179.559 249.477 179.017 250.111 178.608C250.745 178.193 251.564 177.986 252.567 177.986C253.466 177.986 254.253 178.17 254.927 178.539C255.601 178.902 256.126 179.455 256.5 180.199C256.875 180.937 257.062 181.871 257.062 183V191.439H255.022V183.139C255.022 182.095 254.751 181.283 254.209 180.7C253.668 180.113 252.924 179.819 251.979 179.819C251.327 179.819 250.745 179.96 250.232 180.242C249.725 180.525 249.324 180.937 249.03 181.479C248.736 182.02 248.589 182.678 248.589 183.45ZM266.566 178.159V179.888H259.684V178.159H266.566ZM261.69 174.977H263.731V187.635C263.731 188.211 263.814 188.643 263.981 188.931C264.154 189.214 264.373 189.404 264.638 189.502C264.909 189.594 265.195 189.64 265.494 189.64C265.719 189.64 265.904 189.629 266.048 189.606C266.192 189.577 266.307 189.554 266.394 189.537L266.809 191.37C266.67 191.421 266.477 191.473 266.229 191.525C265.981 191.583 265.667 191.612 265.287 191.612C264.71 191.612 264.146 191.488 263.592 191.24C263.045 190.992 262.589 190.614 262.226 190.107C261.869 189.6 261.69 188.96 261.69 188.188V174.977ZM269.636 191.439V178.159H271.607V180.164H271.745C271.987 179.507 272.426 178.974 273.06 178.565C273.694 178.156 274.408 177.951 275.204 177.951C275.354 177.951 275.541 177.954 275.766 177.96C275.991 177.966 276.161 177.974 276.276 177.986V180.061C276.207 180.043 276.048 180.017 275.8 179.983C275.558 179.943 275.302 179.922 275.031 179.922C274.385 179.922 273.809 180.058 273.302 180.329C272.8 180.594 272.402 180.963 272.109 181.435C271.82 181.902 271.676 182.435 271.676 183.035V191.439H269.636ZM282.602 191.75C281.761 191.75 280.997 191.591 280.311 191.274C279.625 190.952 279.081 190.488 278.677 189.882C278.274 189.271 278.072 188.534 278.072 187.669C278.072 186.908 278.222 186.292 278.522 185.819C278.821 185.34 279.222 184.966 279.723 184.695C280.225 184.424 280.778 184.222 281.383 184.09C281.994 183.951 282.608 183.842 283.225 183.761C284.032 183.657 284.686 183.58 285.188 183.528C285.695 183.47 286.064 183.375 286.294 183.242C286.531 183.11 286.649 182.879 286.649 182.551V182.482C286.649 181.628 286.415 180.966 285.948 180.493C285.487 180.02 284.787 179.784 283.848 179.784C282.873 179.784 282.11 179.997 281.556 180.424C281.003 180.85 280.614 181.306 280.389 181.79L278.452 181.098C278.798 180.291 279.259 179.663 279.836 179.213C280.418 178.758 281.052 178.441 281.738 178.262C282.43 178.078 283.11 177.986 283.778 177.986C284.205 177.986 284.695 178.038 285.248 178.141C285.807 178.239 286.346 178.444 286.865 178.755C287.389 179.066 287.825 179.536 288.17 180.164C288.516 180.793 288.689 181.634 288.689 182.689V191.439H286.649V189.64H286.545C286.407 189.929 286.176 190.237 285.853 190.565C285.531 190.894 285.101 191.174 284.565 191.404C284.029 191.635 283.375 191.75 282.602 191.75ZM282.914 189.917C283.721 189.917 284.401 189.759 284.954 189.442C285.513 189.124 285.934 188.715 286.216 188.214C286.505 187.712 286.649 187.185 286.649 186.632V184.764C286.562 184.868 286.372 184.963 286.078 185.049C285.79 185.13 285.456 185.202 285.075 185.266C284.701 185.323 284.335 185.375 283.977 185.421C283.626 185.462 283.34 185.496 283.121 185.525C282.591 185.594 282.095 185.706 281.634 185.862C281.179 186.012 280.81 186.24 280.527 186.545C280.251 186.845 280.112 187.254 280.112 187.773C280.112 188.482 280.375 189.018 280.899 189.381C281.43 189.738 282.101 189.917 282.914 189.917ZM294.316 186.597L294.281 184.072H294.696L300.506 178.159H303.031L296.84 184.418H296.667L294.316 186.597ZM292.413 191.439V173.732H294.454V191.439H292.413ZM300.852 191.439L295.664 184.868L297.117 183.45L303.446 191.439H300.852ZM311.432 178.159V179.888H304.55V178.159H311.432ZM306.556 174.977H308.596V187.635C308.596 188.211 308.68 188.643 308.847 188.931C309.02 189.214 309.239 189.404 309.504 189.502C309.775 189.594 310.06 189.64 310.36 189.64C310.585 189.64 310.769 189.629 310.914 189.606C311.058 189.577 311.173 189.554 311.259 189.537L311.674 191.37C311.536 191.421 311.343 191.473 311.095 191.525C310.847 191.583 310.533 191.612 310.153 191.612C309.576 191.612 309.011 191.488 308.458 191.24C307.911 190.992 307.455 190.614 307.092 190.107C306.735 189.6 306.556 188.96 306.556 188.188V174.977ZM319.754 191.715C318.555 191.715 317.503 191.43 316.598 190.859C315.699 190.289 314.996 189.491 314.489 188.465C313.987 187.439 313.736 186.24 313.736 184.868C313.736 183.484 313.987 182.277 314.489 181.245C314.996 180.213 315.699 179.412 316.598 178.842C317.503 178.271 318.555 177.986 319.754 177.986C320.953 177.986 322.002 178.271 322.901 178.842C323.806 179.412 324.509 180.213 325.011 181.245C325.518 182.277 325.772 183.484 325.772 184.868C325.772 186.24 325.518 187.439 325.011 188.465C324.509 189.491 323.806 190.289 322.901 190.859C322.002 191.43 320.953 191.715 319.754 191.715ZM319.754 189.882C320.665 189.882 321.414 189.649 322.002 189.182C322.59 188.715 323.025 188.101 323.307 187.341C323.59 186.58 323.731 185.755 323.731 184.868C323.731 183.98 323.59 183.153 323.307 182.386C323.025 181.62 322.59 181 322.002 180.528C321.414 180.055 320.665 179.819 319.754 179.819C318.843 179.819 318.094 180.055 317.506 180.528C316.918 181 316.483 181.62 316.201 182.386C315.918 183.153 315.777 183.98 315.777 184.868C315.777 185.755 315.918 186.58 316.201 187.341C316.483 188.101 316.918 188.715 317.506 189.182C318.094 189.649 318.843 189.882 319.754 189.882ZM328.886 191.439V178.159H330.857V180.164H330.996C331.238 179.507 331.676 178.974 332.31 178.565C332.944 178.156 333.659 177.951 334.454 177.951C334.604 177.951 334.791 177.954 335.016 177.96C335.241 177.966 335.411 177.974 335.526 177.986V180.061C335.457 180.043 335.299 180.017 335.051 179.983C334.809 179.943 334.552 179.922 334.281 179.922C333.636 179.922 333.059 180.058 332.552 180.329C332.051 180.594 331.653 180.963 331.359 181.435C331.071 181.902 330.927 182.435 330.927 183.035V191.439H328.886Z" fill="black"/>
<path d="M345.86 196.551V169" stroke="#F58634" strokeWidth="1.33299"/>
<path d="M365.469 192H360.004V174.293H365.711C367.428 174.293 368.898 174.648 370.12 175.357C371.342 176.06 372.279 177.071 372.93 178.391C373.581 179.706 373.907 181.279 373.907 183.112C373.907 184.956 373.578 186.544 372.921 187.876C372.264 189.202 371.307 190.222 370.051 190.937C368.794 191.646 367.267 192 365.469 192ZM362.148 190.098H365.33C366.794 190.098 368.008 189.815 368.97 189.251C369.933 188.686 370.65 187.882 371.123 186.838C371.596 185.795 371.832 184.553 371.832 183.112C371.832 181.683 371.598 180.452 371.132 179.42C370.665 178.383 369.967 177.587 369.039 177.034C368.111 176.475 366.956 176.195 365.572 176.195H362.148V190.098ZM382.795 192.277C381.515 192.277 380.412 191.994 379.484 191.429C378.561 190.859 377.849 190.063 377.348 189.043C376.852 188.017 376.604 186.824 376.604 185.464C376.604 184.103 376.852 182.905 377.348 181.867C377.849 180.824 378.547 180.011 379.44 179.429C380.339 178.841 381.389 178.547 382.587 178.547C383.279 178.547 383.962 178.662 384.636 178.893C385.311 179.123 385.925 179.498 386.478 180.017C387.031 180.53 387.472 181.21 387.801 182.057C388.129 182.905 388.294 183.948 388.294 185.187V186.052H378.057V184.288H386.219C386.219 183.539 386.069 182.87 385.769 182.282C385.475 181.694 385.054 181.23 384.507 180.89C383.965 180.55 383.325 180.38 382.587 180.38C381.775 180.38 381.071 180.582 380.478 180.985C379.89 181.383 379.437 181.902 379.12 182.541C378.803 183.181 378.645 183.867 378.645 184.599V185.775C378.645 186.778 378.818 187.628 379.164 188.325C379.515 189.017 380.002 189.545 380.625 189.908C381.247 190.265 381.971 190.444 382.795 190.444C383.331 190.444 383.815 190.369 384.247 190.219C384.685 190.063 385.063 189.833 385.38 189.527C385.697 189.216 385.942 188.83 386.115 188.369L388.086 188.922C387.879 189.591 387.53 190.179 387.04 190.686C386.55 191.187 385.945 191.579 385.224 191.862C384.504 192.138 383.694 192.277 382.795 192.277ZM400.804 181.694L398.971 182.213C398.856 181.907 398.686 181.61 398.461 181.322C398.242 181.028 397.943 180.786 397.562 180.596C397.182 180.406 396.695 180.311 396.101 180.311C395.288 180.311 394.611 180.498 394.069 180.873C393.533 181.242 393.265 181.711 393.265 182.282C393.265 182.789 393.45 183.19 393.818 183.484C394.187 183.778 394.764 184.023 395.548 184.219L397.519 184.703C398.706 184.991 399.591 185.432 400.173 186.026C400.755 186.614 401.046 187.372 401.046 188.3C401.046 189.06 400.827 189.741 400.389 190.34C399.957 190.939 399.352 191.412 398.574 191.758C397.796 192.104 396.891 192.277 395.859 192.277C394.504 192.277 393.383 191.983 392.496 191.395C391.608 190.807 391.046 189.948 390.81 188.818L392.746 188.334C392.931 189.049 393.28 189.585 393.793 189.942C394.311 190.3 394.989 190.478 395.824 190.478C396.775 190.478 397.53 190.277 398.09 189.873C398.654 189.464 398.937 188.974 398.937 188.403C398.937 187.942 398.775 187.556 398.453 187.245C398.13 186.928 397.634 186.691 396.966 186.536L394.752 186.017C393.536 185.729 392.643 185.282 392.072 184.677C391.507 184.066 391.225 183.302 391.225 182.386C391.225 181.636 391.435 180.974 391.856 180.397C392.282 179.821 392.862 179.368 393.594 179.04C394.331 178.711 395.167 178.547 396.101 178.547C397.415 178.547 398.447 178.835 399.196 179.412C399.951 179.988 400.487 180.749 400.804 181.694ZM408.026 192.311C407.184 192.311 406.421 192.153 405.735 191.836C405.049 191.513 404.504 191.049 404.101 190.444C403.697 189.833 403.495 189.095 403.495 188.23C403.495 187.47 403.645 186.853 403.945 186.38C404.245 185.902 404.645 185.527 405.147 185.256C405.648 184.985 406.202 184.784 406.807 184.651C407.418 184.513 408.032 184.403 408.648 184.322C409.455 184.219 410.11 184.141 410.611 184.089C411.118 184.031 411.487 183.936 411.718 183.804C411.954 183.671 412.072 183.441 412.072 183.112V183.043C412.072 182.19 411.839 181.527 411.372 181.054C410.911 180.582 410.21 180.345 409.271 180.345C408.297 180.345 407.533 180.559 406.98 180.985C406.426 181.412 406.037 181.867 405.812 182.351L403.876 181.659C404.222 180.853 404.683 180.224 405.259 179.775C405.841 179.319 406.475 179.002 407.161 178.824C407.853 178.639 408.533 178.547 409.202 178.547C409.628 178.547 410.118 178.599 410.671 178.703C411.231 178.801 411.77 179.005 412.288 179.316C412.813 179.628 413.248 180.097 413.594 180.726C413.94 181.354 414.113 182.196 414.113 183.25V192H412.072V190.202H411.968C411.83 190.49 411.599 190.798 411.277 191.127C410.954 191.455 410.525 191.735 409.988 191.965C409.452 192.196 408.798 192.311 408.026 192.311ZM408.337 190.478C409.144 190.478 409.824 190.32 410.378 190.003C410.937 189.686 411.357 189.277 411.64 188.775C411.928 188.274 412.072 187.746 412.072 187.193V185.325C411.986 185.429 411.795 185.524 411.502 185.611C411.213 185.691 410.879 185.763 410.499 185.827C410.124 185.884 409.758 185.936 409.401 185.982C409.049 186.023 408.764 186.057 408.545 186.086C408.014 186.155 407.519 186.268 407.058 186.423C406.602 186.573 406.233 186.801 405.951 187.106C405.674 187.406 405.536 187.815 405.536 188.334C405.536 189.043 405.798 189.579 406.323 189.942C406.853 190.3 407.524 190.478 408.337 190.478ZM417.837 192V178.72H419.877V192H417.837ZM418.874 176.507C418.477 176.507 418.134 176.371 417.845 176.1C417.563 175.829 417.422 175.504 417.422 175.123C417.422 174.743 417.563 174.417 417.845 174.146C418.134 173.875 418.477 173.74 418.874 173.74C419.272 173.74 419.612 173.875 419.895 174.146C420.183 174.417 420.327 174.743 420.327 175.123C420.327 175.504 420.183 175.829 419.895 176.1C419.612 176.371 419.272 176.507 418.874 176.507ZM425.655 184.011V192H423.614V178.72H425.586V180.795H425.759C426.07 180.121 426.543 179.579 427.177 179.169C427.811 178.754 428.629 178.547 429.632 178.547C430.531 178.547 431.318 178.731 431.992 179.1C432.667 179.463 433.191 180.017 433.566 180.76C433.941 181.498 434.128 182.432 434.128 183.562V192H432.087V183.7C432.087 182.657 431.817 181.844 431.275 181.262C430.733 180.674 429.989 180.38 429.044 180.38C428.393 180.38 427.811 180.521 427.298 180.804C426.79 181.086 426.39 181.498 426.096 182.04C425.802 182.582 425.655 183.239 425.655 184.011ZM444.704 192V178.72H446.744V192H444.704ZM445.741 176.507C445.344 176.507 445.001 176.371 444.713 176.1C444.43 175.829 444.289 175.504 444.289 175.123C444.289 174.743 444.43 174.417 444.713 174.146C445.001 173.875 445.344 173.74 445.741 173.74C446.139 173.74 446.479 173.875 446.762 174.146C447.05 174.417 447.194 174.743 447.194 175.123C447.194 175.504 447.05 175.829 446.762 176.1C446.479 176.371 446.139 176.507 445.741 176.507ZM452.522 184.011V192H450.482V178.72H452.453V180.795H452.626C452.937 180.121 453.41 179.579 454.044 179.169C454.678 178.754 455.496 178.547 456.499 178.547C457.398 178.547 458.185 178.731 458.859 179.1C459.534 179.463 460.058 180.017 460.433 180.76C460.808 181.498 460.995 182.432 460.995 183.562V192H458.955V183.7C458.955 182.657 458.684 181.844 458.142 181.262C457.6 180.674 456.857 180.38 455.911 180.38C455.26 180.38 454.678 180.521 454.165 180.804C453.658 181.086 453.257 181.498 452.963 182.04C452.669 182.582 452.522 183.239 452.522 184.011ZM470.499 178.72V180.449H463.617V178.72H470.499ZM465.623 175.538H467.663V188.196C467.663 188.772 467.747 189.204 467.914 189.493C468.087 189.775 468.306 189.965 468.571 190.063C468.842 190.156 469.127 190.202 469.427 190.202C469.652 190.202 469.836 190.19 469.98 190.167C470.124 190.138 470.24 190.115 470.326 190.098L470.741 191.931C470.603 191.983 470.41 192.035 470.162 192.086C469.914 192.144 469.6 192.173 469.219 192.173C468.643 192.173 468.078 192.049 467.525 191.801C466.977 191.553 466.522 191.176 466.159 190.669C465.801 190.161 465.623 189.522 465.623 188.749V175.538ZM478.994 192.277C477.714 192.277 476.61 191.994 475.682 191.429C474.76 190.859 474.048 190.063 473.547 189.043C473.051 188.017 472.803 186.824 472.803 185.464C472.803 184.103 473.051 182.905 473.547 181.867C474.048 180.824 474.746 180.011 475.639 179.429C476.538 178.841 477.587 178.547 478.786 178.547C479.478 178.547 480.161 178.662 480.835 178.893C481.51 179.123 482.123 179.498 482.677 180.017C483.23 180.53 483.671 181.21 484 182.057C484.328 182.905 484.492 183.948 484.492 185.187V186.052H474.256V184.288H482.417C482.417 183.539 482.268 182.87 481.968 182.282C481.674 181.694 481.253 181.23 480.706 180.89C480.164 180.55 479.524 180.38 478.786 180.38C477.973 180.38 477.27 180.582 476.677 180.985C476.089 181.383 475.636 181.902 475.319 182.541C475.002 183.181 474.844 183.867 474.844 184.599V185.775C474.844 186.778 475.017 187.628 475.362 188.325C475.714 189.017 476.201 189.545 476.824 189.908C477.446 190.265 478.169 190.444 478.994 190.444C479.53 190.444 480.014 190.369 480.446 190.219C480.884 190.063 481.262 189.833 481.579 189.527C481.896 189.216 482.141 188.83 482.314 188.369L484.285 188.922C484.077 189.591 483.729 190.179 483.239 190.686C482.749 191.187 482.144 191.579 481.423 191.862C480.703 192.138 479.893 192.277 478.994 192.277ZM487.596 192V178.72H489.568V180.726H489.706C489.948 180.069 490.386 179.535 491.02 179.126C491.654 178.717 492.369 178.512 493.164 178.512C493.314 178.512 493.501 178.515 493.726 178.521C493.951 178.527 494.121 178.535 494.236 178.547V180.622C494.167 180.605 494.009 180.579 493.761 180.544C493.519 180.504 493.262 180.484 492.991 180.484C492.346 180.484 491.769 180.619 491.262 180.89C490.761 181.155 490.363 181.524 490.069 181.997C489.781 182.464 489.637 182.997 489.637 183.596V192H487.596ZM496.655 192V178.72H498.696V192H496.655ZM497.693 176.507C497.295 176.507 496.952 176.371 496.664 176.1C496.381 175.829 496.24 175.504 496.24 175.123C496.24 174.743 496.381 174.417 496.664 174.146C496.952 173.875 497.295 173.74 497.693 173.74C498.09 173.74 498.43 173.875 498.713 174.146C499.001 174.417 499.145 174.743 499.145 175.123C499.145 175.504 499.001 175.829 498.713 176.1C498.43 176.371 498.09 176.507 497.693 176.507ZM507.828 192.277C506.629 192.277 505.577 191.991 504.672 191.421C503.773 190.85 503.07 190.052 502.562 189.026C502.061 188 501.81 186.801 501.81 185.429C501.81 184.046 502.061 182.838 502.562 181.806C503.07 180.775 503.773 179.974 504.672 179.403C505.577 178.832 506.629 178.547 507.828 178.547C509.027 178.547 510.076 178.832 510.975 179.403C511.88 179.974 512.583 180.775 513.084 181.806C513.592 182.838 513.845 184.046 513.845 185.429C513.845 186.801 513.592 188 513.084 189.026C512.583 190.052 511.88 190.85 510.975 191.421C510.076 191.991 509.027 192.277 507.828 192.277ZM507.828 190.444C508.738 190.444 509.488 190.21 510.076 189.743C510.664 189.277 511.099 188.663 511.381 187.902C511.664 187.141 511.805 186.317 511.805 185.429C511.805 184.541 511.664 183.714 511.381 182.948C511.099 182.181 510.664 181.562 510.076 181.089C509.488 180.616 508.738 180.38 507.828 180.38C506.917 180.38 506.168 180.616 505.58 181.089C504.992 181.562 504.557 182.181 504.274 182.948C503.992 183.714 503.851 184.541 503.851 185.429C503.851 186.317 503.992 187.141 504.274 187.902C504.557 188.663 504.992 189.277 505.58 189.743C506.168 190.21 506.917 190.444 507.828 190.444ZM516.96 192V178.72H518.931V180.726H519.07C519.312 180.069 519.75 179.535 520.384 179.126C521.018 178.717 521.733 178.512 522.528 178.512C522.678 178.512 522.865 178.515 523.09 178.521C523.315 178.527 523.485 178.535 523.6 178.547V180.622C523.531 180.605 523.372 180.579 523.125 180.544C522.882 180.504 522.626 180.484 522.355 180.484C521.71 180.484 521.133 180.619 520.626 180.89C520.124 181.155 519.727 181.524 519.433 181.997C519.145 182.464 519 182.997 519 183.596V192H516.96Z" fill="black"/>
<path d="M531.86 197.475V169.924" stroke="#F58634" strokeWidth="1.33299"/>
<path d="M555.452 179.827H553.308C553.181 179.21 552.96 178.668 552.643 178.201C552.331 177.734 551.951 177.342 551.501 177.025C551.057 176.703 550.565 176.46 550.023 176.299C549.481 176.138 548.916 176.057 548.328 176.057C547.256 176.057 546.285 176.328 545.415 176.87C544.55 177.411 543.861 178.21 543.348 179.265C542.841 180.319 542.587 181.613 542.587 183.147C542.587 184.68 542.841 185.974 543.348 187.029C543.861 188.083 544.55 188.882 545.415 189.424C546.285 189.965 547.256 190.236 548.328 190.236C548.916 190.236 549.481 190.156 550.023 189.994C550.565 189.833 551.057 189.594 551.501 189.277C551.951 188.954 552.331 188.559 552.643 188.092C552.96 187.619 553.181 187.078 553.308 186.467H555.452C555.291 187.372 554.997 188.181 554.571 188.896C554.144 189.611 553.614 190.219 552.98 190.72C552.346 191.216 551.634 191.594 550.844 191.853C550.06 192.112 549.222 192.242 548.328 192.242C546.818 192.242 545.475 191.873 544.299 191.135C543.123 190.398 542.198 189.349 541.524 187.988C540.85 186.628 540.512 185.014 540.512 183.147C540.512 181.279 540.85 179.665 541.524 178.305C542.198 176.945 543.123 175.896 544.299 175.158C545.475 174.42 546.818 174.051 548.328 174.051C549.222 174.051 550.06 174.181 550.844 174.44C551.634 174.7 552.346 175.08 552.98 175.581C553.614 176.077 554.144 176.682 554.571 177.397C554.997 178.106 555.291 178.916 555.452 179.827ZM564.036 192.277C562.837 192.277 561.785 191.991 560.88 191.421C559.981 190.85 559.278 190.052 558.77 189.026C558.269 188 558.018 186.801 558.018 185.429C558.018 184.046 558.269 182.838 558.77 181.806C559.278 180.775 559.981 179.974 560.88 179.403C561.785 178.832 562.837 178.547 564.036 178.547C565.235 178.547 566.284 178.832 567.183 179.403C568.088 179.974 568.791 180.775 569.292 181.806C569.8 182.838 570.053 184.046 570.053 185.429C570.053 186.801 569.8 188 569.292 189.026C568.791 190.052 568.088 190.85 567.183 191.421C566.284 191.991 565.235 192.277 564.036 192.277ZM564.036 190.444C564.946 190.444 565.696 190.21 566.284 189.743C566.872 189.277 567.307 188.663 567.589 187.902C567.872 187.141 568.013 186.317 568.013 185.429C568.013 184.541 567.872 183.714 567.589 182.948C567.307 182.181 566.872 181.562 566.284 181.089C565.696 180.616 564.946 180.38 564.036 180.38C563.125 180.38 562.376 180.616 561.788 181.089C561.2 181.562 560.765 182.181 560.482 182.948C560.2 183.714 560.059 184.541 560.059 185.429C560.059 186.317 560.2 187.141 560.482 187.902C560.765 188.663 561.2 189.277 561.788 189.743C562.376 190.21 563.125 190.444 564.036 190.444ZM575.208 184.011V192H573.168V178.72H575.139V180.795H575.312C575.623 180.121 576.096 179.579 576.73 179.169C577.364 178.754 578.183 178.547 579.185 178.547C580.085 178.547 580.871 178.731 581.546 179.1C582.22 179.463 582.745 180.017 583.119 180.76C583.494 181.498 583.681 182.432 583.681 183.562V192H581.641V183.7C581.641 182.657 581.37 181.844 580.828 181.262C580.286 180.674 579.543 180.38 578.598 180.38C577.946 180.38 577.364 180.521 576.851 180.804C576.344 181.086 575.943 181.498 575.649 182.04C575.355 182.582 575.208 183.239 575.208 184.011ZM596.817 181.694L594.984 182.213C594.868 181.907 594.698 181.61 594.474 181.322C594.255 181.028 593.955 180.786 593.574 180.596C593.194 180.406 592.707 180.311 592.113 180.311C591.301 180.311 590.623 180.498 590.082 180.873C589.545 181.242 589.277 181.711 589.277 182.282C589.277 182.789 589.462 183.19 589.831 183.484C590.2 183.778 590.776 184.023 591.56 184.219L593.531 184.703C594.719 184.991 595.603 185.432 596.186 186.026C596.768 186.614 597.059 187.372 597.059 188.3C597.059 189.06 596.84 189.741 596.402 190.34C595.969 190.939 595.364 191.412 594.586 191.758C593.808 192.104 592.903 192.277 591.871 192.277C590.517 192.277 589.396 191.983 588.508 191.395C587.62 190.807 587.058 189.948 586.822 188.818L588.759 188.334C588.943 189.049 589.292 189.585 589.805 189.942C590.324 190.3 591.001 190.478 591.837 190.478C592.788 190.478 593.543 190.277 594.102 189.873C594.667 189.464 594.949 188.974 594.949 188.403C594.949 187.942 594.788 187.556 594.465 187.245C594.142 186.928 593.646 186.691 592.978 186.536L590.765 186.017C589.548 185.729 588.655 185.282 588.084 184.677C587.519 184.066 587.237 183.302 587.237 182.386C587.237 181.636 587.447 180.974 587.868 180.397C588.295 179.821 588.874 179.368 589.606 179.04C590.344 178.711 591.18 178.547 592.113 178.547C593.427 178.547 594.459 178.835 595.209 179.412C595.964 179.988 596.5 180.749 596.817 181.694ZM608.499 186.57V178.72H610.54V192H608.499V189.752H608.361C608.05 190.426 607.566 191 606.909 191.473C606.252 191.939 605.422 192.173 604.419 192.173C603.589 192.173 602.851 191.991 602.205 191.628C601.56 191.259 601.052 190.706 600.684 189.968C600.315 189.225 600.13 188.288 600.13 187.158V178.72H602.171V187.02C602.171 187.988 602.442 188.761 602.983 189.337C603.531 189.913 604.228 190.202 605.076 190.202C605.583 190.202 606.099 190.072 606.623 189.813C607.154 189.553 607.597 189.155 607.955 188.619C608.318 188.083 608.499 187.4 608.499 186.57ZM616.318 174.293V192H614.277V174.293H616.318ZM625.83 178.72V180.449H618.948V178.72H625.83ZM620.954 175.538H622.994V188.196C622.994 188.772 623.078 189.204 623.245 189.493C623.418 189.775 623.637 189.965 623.902 190.063C624.173 190.156 624.458 190.202 624.758 190.202C624.983 190.202 625.167 190.19 625.311 190.167C625.456 190.138 625.571 190.115 625.657 190.098L626.072 191.931C625.934 191.983 625.741 192.035 625.493 192.086C625.245 192.144 624.931 192.173 624.551 192.173C623.974 192.173 623.409 192.049 622.856 191.801C622.308 191.553 621.853 191.176 621.49 190.669C621.133 190.161 620.954 189.522 620.954 188.749V175.538ZM632.807 192.311C631.966 192.311 631.202 192.153 630.516 191.836C629.83 191.513 629.286 191.049 628.882 190.444C628.479 189.833 628.277 189.095 628.277 188.23C628.277 187.47 628.427 186.853 628.727 186.38C629.026 185.902 629.427 185.527 629.928 185.256C630.43 184.985 630.983 184.784 631.588 184.651C632.199 184.513 632.813 184.403 633.43 184.322C634.237 184.219 634.891 184.141 635.393 184.089C635.9 184.031 636.269 183.936 636.499 183.804C636.736 183.671 636.854 183.441 636.854 183.112V183.043C636.854 182.19 636.62 181.527 636.153 181.054C635.692 180.582 634.992 180.345 634.052 180.345C633.078 180.345 632.315 180.559 631.761 180.985C631.208 181.412 630.819 181.867 630.594 182.351L628.657 181.659C629.003 180.853 629.464 180.224 630.041 179.775C630.623 179.319 631.257 179.002 631.943 178.824C632.635 178.639 633.315 178.547 633.983 178.547C634.41 178.547 634.9 178.599 635.453 178.703C636.012 178.801 636.551 179.005 637.07 179.316C637.594 179.628 638.03 180.097 638.375 180.726C638.721 181.354 638.894 182.196 638.894 183.25V192H636.854V190.202H636.75C636.612 190.49 636.381 190.798 636.058 191.127C635.736 191.455 635.306 191.735 634.77 191.965C634.234 192.196 633.58 192.311 632.807 192.311ZM633.119 190.478C633.926 190.478 634.606 190.32 635.159 190.003C635.718 189.686 636.139 189.277 636.421 188.775C636.71 188.274 636.854 187.746 636.854 187.193V185.325C636.767 185.429 636.577 185.524 636.283 185.611C635.995 185.691 635.661 185.763 635.28 185.827C634.906 185.884 634.54 185.936 634.182 185.982C633.831 186.023 633.545 186.057 633.326 186.086C632.796 186.155 632.3 186.268 631.839 186.423C631.384 186.573 631.015 186.801 630.732 187.106C630.456 187.406 630.317 187.815 630.317 188.334C630.317 189.043 630.58 189.579 631.104 189.942C631.634 190.3 632.306 190.478 633.119 190.478ZM644.659 184.011V192H642.618V178.72H644.59V180.795H644.763C645.074 180.121 645.546 179.579 646.181 179.169C646.815 178.754 647.633 178.547 648.636 178.547C649.535 178.547 650.322 178.731 650.996 179.1C651.671 179.463 652.195 180.017 652.57 180.76C652.944 181.498 653.132 182.432 653.132 183.562V192H651.091V183.7C651.091 182.657 650.82 181.844 650.279 181.262C649.737 180.674 648.993 180.38 648.048 180.38C647.397 180.38 646.815 180.521 646.302 180.804C645.794 181.086 645.394 181.498 645.1 182.04C644.806 182.582 644.659 183.239 644.659 184.011Z" fill="black"/>
</svg>
